<mxfile modified="2023-05-25T05:06:24.306Z" host="app.diagrams.net" agent="Mozilla/5.0 (Windows NT 10.0; Win64; x64) AppleWebKit/537.36 (KHTML, like Gecko) Chrome/112.0.0.0 Safari/537.36 OPR/98.0.0.0 (Edition std-1)" etag="3SHlSukRXj6e9Z1Jxa-I" version="21.3.3" type="github">
  <diagram id="f106602c-feb2-e66a-4537-3a34d633f6aa" name="Page-1">
    <mxGraphModel dx="1151" dy="1099" grid="1" gridSize="10" guides="1" tooltips="1" connect="1" arrows="1" fold="1" page="1" pageScale="1" pageWidth="4681" pageHeight="3300" background="none" math="0" shadow="0">
      <root>
        <mxCell id="0" />
        <mxCell id="1" parent="0" />
        <mxCell id="705" value="Generate &lt;br&gt;ChatGPT&lt;br style=&quot;font-size: 15px;&quot;&gt;Prompt&lt;br&gt;Inputs" style="rounded=1;absoluteArcSize=1;arcSize=2;html=1;strokeColor=none;gradientColor=none;shadow=0;dashed=0;strokeColor=none;fontSize=15;fontColor=#9E9E9E;align=left;verticalAlign=top;spacing=10;spacingTop=-4;fillColor=#FFF8E1;" parent="1" vertex="1">
          <mxGeometry x="50" y="129.5" width="150" height="130.5" as="geometry" />
        </mxCell>
        <mxCell id="706" value="Run GPT Prompt&amp;nbsp;&lt;br&gt;Inputs, Output&lt;br&gt;Midjourney Prompt&lt;br&gt;inputs" style="rounded=1;absoluteArcSize=1;arcSize=2;html=1;strokeColor=none;gradientColor=none;shadow=0;dashed=0;strokeColor=none;fontSize=12;fontColor=#9E9E9E;align=left;verticalAlign=top;spacing=10;spacingTop=-4;fillColor=#FFF8E1;" parent="1" vertex="1">
          <mxGeometry x="250" y="362.5" width="180" height="136" as="geometry" />
        </mxCell>
        <mxCell id="699" value="&lt;font style=&quot;font-size: 15px;&quot;&gt;Stored &lt;br&gt;Prompt &lt;br&gt;Database&lt;br&gt;&lt;br&gt;(MJ, CGPT)&lt;br&gt;&lt;/font&gt;" style="strokeColor=#dddddd;fillColor=#ffffff;shadow=1;strokeWidth=1;rounded=1;absoluteArcSize=1;arcSize=2;fontSize=10;fontColor=#9E9E9E;align=center;html=1;" parent="1" vertex="1">
          <mxGeometry x="250" y="130" width="180" height="130" as="geometry" />
        </mxCell>
        <mxCell id="ffHOuooeFG3IOqxRoeIw-715" value="Midjourney&lt;br&gt;Stable Diffusion&lt;br&gt;DALLE-2" style="rounded=1;absoluteArcSize=1;arcSize=2;html=1;strokeColor=none;gradientColor=none;shadow=0;dashed=0;strokeColor=none;fontSize=12;fontColor=#9E9E9E;align=left;verticalAlign=top;spacing=10;spacingTop=-4;fillColor=#FFF8E1;" vertex="1" parent="1">
          <mxGeometry x="470" y="129.5" width="140" height="112.5" as="geometry" />
        </mxCell>
        <mxCell id="ffHOuooeFG3IOqxRoeIw-727" value="Image upscaling" style="rounded=1;absoluteArcSize=1;arcSize=2;html=1;strokeColor=none;gradientColor=none;shadow=0;dashed=0;strokeColor=none;fontSize=12;fontColor=#9E9E9E;align=left;verticalAlign=top;spacing=10;spacingTop=-4;fillColor=#FFF8E1;" vertex="1" parent="1">
          <mxGeometry x="570" y="410" width="130" height="100" as="geometry" />
        </mxCell>
        <mxCell id="ffHOuooeFG3IOqxRoeIw-728" value="&lt;font style=&quot;font-size: 15px;&quot;&gt;Stored &lt;br&gt;Image&lt;br&gt;Database&lt;br&gt;&lt;/font&gt;" style="strokeColor=#dddddd;fillColor=#ffffff;shadow=1;strokeWidth=1;rounded=1;absoluteArcSize=1;arcSize=2;fontSize=10;fontColor=#9E9E9E;align=center;html=1;" vertex="1" parent="1">
          <mxGeometry x="650" y="130.5" width="160" height="90" as="geometry" />
        </mxCell>
        <mxCell id="ffHOuooeFG3IOqxRoeIw-736" value="" style="verticalLabelPosition=bottom;html=1;verticalAlign=top;align=center;strokeColor=none;fillColor=#00BEF2;shape=mxgraph.azure.script_file;pointerEvents=1;" vertex="1" parent="1">
          <mxGeometry x="140" y="200" width="47.5" height="50" as="geometry" />
        </mxCell>
        <mxCell id="ffHOuooeFG3IOqxRoeIw-737" value="" style="verticalLabelPosition=bottom;html=1;verticalAlign=top;align=center;strokeColor=none;fillColor=#00BEF2;shape=mxgraph.azure.script_file;pointerEvents=1;" vertex="1" parent="1">
          <mxGeometry x="360" y="440" width="47.5" height="50" as="geometry" />
        </mxCell>
        <mxCell id="ffHOuooeFG3IOqxRoeIw-740" value="" style="image;aspect=fixed;perimeter=ellipsePerimeter;html=1;align=center;shadow=0;dashed=0;spacingTop=3;image=img/lib/active_directory/databases.svg;" vertex="1" parent="1">
          <mxGeometry x="260" y="140" width="50" height="49" as="geometry" />
        </mxCell>
        <mxCell id="ffHOuooeFG3IOqxRoeIw-743" value="" style="sketch=0;outlineConnect=0;fontColor=#ffffff;fillColor=#008a00;strokeColor=#005700;dashed=0;verticalLabelPosition=bottom;verticalAlign=top;align=center;html=1;fontSize=12;fontStyle=0;aspect=fixed;pointerEvents=1;shape=mxgraph.aws4.container_registry_image;" vertex="1" parent="1">
          <mxGeometry x="580" y="470" width="30" height="30" as="geometry" />
        </mxCell>
        <mxCell id="ffHOuooeFG3IOqxRoeIw-744" value="" style="sketch=0;outlineConnect=0;fontColor=#232F3E;gradientColor=none;fillColor=#D45B07;strokeColor=none;dashed=0;verticalLabelPosition=bottom;verticalAlign=top;align=center;html=1;fontSize=12;fontStyle=0;aspect=fixed;pointerEvents=1;shape=mxgraph.aws4.container_registry_image;" vertex="1" parent="1">
          <mxGeometry x="640" y="450" width="50" height="50" as="geometry" />
        </mxCell>
        <mxCell id="ffHOuooeFG3IOqxRoeIw-747" value="" style="html=1;shadow=0;dashed=0;align=center;verticalAlign=middle;shape=mxgraph.arrows2.arrow;dy=0.6;dx=40;notch=0;" vertex="1" parent="1">
          <mxGeometry x="620" y="475" width="10" height="20" as="geometry" />
        </mxCell>
        <mxCell id="ffHOuooeFG3IOqxRoeIw-748" value="" style="image;aspect=fixed;perimeter=ellipsePerimeter;html=1;align=center;shadow=0;dashed=0;spacingTop=3;image=img/lib/active_directory/databases.svg;" vertex="1" parent="1">
          <mxGeometry x="650" y="130" width="50" height="49" as="geometry" />
        </mxCell>
        <mxCell id="ffHOuooeFG3IOqxRoeIw-749" value="" style="sketch=0;points=[[0,0,0],[0.25,0,0],[0.5,0,0],[0.75,0,0],[1,0,0],[0,1,0],[0.25,1,0],[0.5,1,0],[0.75,1,0],[1,1,0],[0,0.25,0],[0,0.5,0],[0,0.75,0],[1,0.25,0],[1,0.5,0],[1,0.75,0]];outlineConnect=0;fontColor=#232F3E;gradientColor=#4AB29A;gradientDirection=north;fillColor=#116D5B;strokeColor=#ffffff;dashed=0;verticalLabelPosition=bottom;verticalAlign=top;align=center;html=1;fontSize=12;fontStyle=0;aspect=fixed;shape=mxgraph.aws4.resourceIcon;resIcon=mxgraph.aws4.machine_learning;" vertex="1" parent="1">
          <mxGeometry x="550" y="189" width="48" height="48" as="geometry" />
        </mxCell>
        <mxCell id="ffHOuooeFG3IOqxRoeIw-750" value="Describe images&lt;br&gt;(title, description, tags" style="rounded=1;absoluteArcSize=1;arcSize=2;html=1;strokeColor=none;gradientColor=none;shadow=0;dashed=0;strokeColor=none;fontSize=15;fontColor=#9E9E9E;align=left;verticalAlign=top;spacing=10;spacingTop=-4;fillColor=#FFF8E1;" vertex="1" parent="1">
          <mxGeometry x="725" y="399.75" width="165" height="130.5" as="geometry" />
        </mxCell>
        <mxCell id="ffHOuooeFG3IOqxRoeIw-751" value="" style="verticalLabelPosition=bottom;html=1;verticalAlign=top;align=center;strokeColor=none;fillColor=#00BEF2;shape=mxgraph.azure.script_file;pointerEvents=1;" vertex="1" parent="1">
          <mxGeometry x="830" y="469.75" width="47.5" height="50" as="geometry" />
        </mxCell>
        <mxCell id="ffHOuooeFG3IOqxRoeIw-755" value="Upload to Stores&lt;br&gt;Redbubble&lt;br&gt;Etsy&lt;br&gt;Shopify" style="rounded=1;absoluteArcSize=1;arcSize=2;html=1;strokeColor=none;gradientColor=none;shadow=0;dashed=0;strokeColor=none;fontSize=15;fontColor=#9E9E9E;align=left;verticalAlign=top;spacing=10;spacingTop=-4;fillColor=#FFF8E1;" vertex="1" parent="1">
          <mxGeometry x="850" y="129.5" width="150" height="130.5" as="geometry" />
        </mxCell>
        <mxCell id="ffHOuooeFG3IOqxRoeIw-756" value="" style="verticalLabelPosition=bottom;html=1;verticalAlign=top;align=center;strokeColor=none;fillColor=#00BEF2;shape=mxgraph.azure.script_file;pointerEvents=1;" vertex="1" parent="1">
          <mxGeometry x="930" y="189.75" width="47.5" height="50" as="geometry" />
        </mxCell>
        <mxCell id="ffHOuooeFG3IOqxRoeIw-760" value="Update Social Media&lt;br&gt;Facebook&lt;br&gt;Instagram&lt;br&gt;Pinterest" style="rounded=1;absoluteArcSize=1;arcSize=2;html=1;strokeColor=none;gradientColor=none;shadow=0;dashed=0;strokeColor=none;fontSize=15;fontColor=#9E9E9E;align=left;verticalAlign=top;spacing=10;spacingTop=-4;fillColor=#FFF8E1;" vertex="1" parent="1">
          <mxGeometry x="1048.75" y="129.5" width="150" height="130.5" as="geometry" />
        </mxCell>
        <mxCell id="ffHOuooeFG3IOqxRoeIw-761" value="" style="verticalLabelPosition=bottom;html=1;verticalAlign=top;align=center;strokeColor=none;fillColor=#00BEF2;shape=mxgraph.azure.script_file;pointerEvents=1;" vertex="1" parent="1">
          <mxGeometry x="1130" y="200" width="47.5" height="50" as="geometry" />
        </mxCell>
        <mxCell id="ffHOuooeFG3IOqxRoeIw-765" value="" style="shape=flexArrow;endArrow=classic;html=1;rounded=0;exitX=1;exitY=0.5;exitDx=0;exitDy=0;entryX=0;entryY=0.5;entryDx=0;entryDy=0;" edge="1" parent="1" source="705" target="699">
          <mxGeometry width="50" height="50" relative="1" as="geometry">
            <mxPoint x="590" y="330" as="sourcePoint" />
            <mxPoint x="640" y="280" as="targetPoint" />
          </mxGeometry>
        </mxCell>
        <mxCell id="ffHOuooeFG3IOqxRoeIw-768" value="" style="shape=flexArrow;endArrow=classic;html=1;rounded=0;exitX=1;exitY=0.5;exitDx=0;exitDy=0;entryX=0;entryY=0.5;entryDx=0;entryDy=0;" edge="1" parent="1" source="699" target="ffHOuooeFG3IOqxRoeIw-715">
          <mxGeometry width="50" height="50" relative="1" as="geometry">
            <mxPoint x="430" y="194.25" as="sourcePoint" />
            <mxPoint x="480" y="186" as="targetPoint" />
          </mxGeometry>
        </mxCell>
        <mxCell id="ffHOuooeFG3IOqxRoeIw-769" value="" style="shape=flexArrow;endArrow=classic;startArrow=classic;html=1;rounded=0;exitX=0.5;exitY=0;exitDx=0;exitDy=0;entryX=0.5;entryY=1;entryDx=0;entryDy=0;" edge="1" parent="1" source="706" target="699">
          <mxGeometry width="100" height="100" relative="1" as="geometry">
            <mxPoint x="570" y="360" as="sourcePoint" />
            <mxPoint x="670" y="260" as="targetPoint" />
          </mxGeometry>
        </mxCell>
        <mxCell id="ffHOuooeFG3IOqxRoeIw-771" value="" style="shape=flexArrow;endArrow=classic;startArrow=classic;html=1;rounded=0;exitX=0.415;exitY=0.02;exitDx=0;exitDy=0;exitPerimeter=0;" edge="1" parent="1" source="ffHOuooeFG3IOqxRoeIw-727" target="ffHOuooeFG3IOqxRoeIw-728">
          <mxGeometry width="100" height="100" relative="1" as="geometry">
            <mxPoint x="570" y="360" as="sourcePoint" />
            <mxPoint x="670" y="260" as="targetPoint" />
          </mxGeometry>
        </mxCell>
        <mxCell id="ffHOuooeFG3IOqxRoeIw-772" value="" style="shape=flexArrow;endArrow=classic;startArrow=classic;html=1;rounded=0;exitX=0.5;exitY=0;exitDx=0;exitDy=0;entryX=0.65;entryY=0.994;entryDx=0;entryDy=0;entryPerimeter=0;" edge="1" parent="1" source="ffHOuooeFG3IOqxRoeIw-750" target="ffHOuooeFG3IOqxRoeIw-728">
          <mxGeometry width="100" height="100" relative="1" as="geometry">
            <mxPoint x="570" y="360" as="sourcePoint" />
            <mxPoint x="670" y="260" as="targetPoint" />
          </mxGeometry>
        </mxCell>
        <mxCell id="ffHOuooeFG3IOqxRoeIw-773" value="" style="shape=flexArrow;endArrow=classic;html=1;rounded=0;entryX=0;entryY=0.5;entryDx=0;entryDy=0;exitX=1.013;exitY=0.583;exitDx=0;exitDy=0;exitPerimeter=0;" edge="1" parent="1" source="ffHOuooeFG3IOqxRoeIw-728" target="ffHOuooeFG3IOqxRoeIw-755">
          <mxGeometry width="50" height="50" relative="1" as="geometry">
            <mxPoint x="590" y="330" as="sourcePoint" />
            <mxPoint x="640" y="280" as="targetPoint" />
          </mxGeometry>
        </mxCell>
        <mxCell id="ffHOuooeFG3IOqxRoeIw-774" value="" style="shape=flexArrow;endArrow=classic;html=1;rounded=0;entryX=0;entryY=0.5;entryDx=0;entryDy=0;exitX=1;exitY=0.5;exitDx=0;exitDy=0;" edge="1" parent="1" source="ffHOuooeFG3IOqxRoeIw-755" target="ffHOuooeFG3IOqxRoeIw-760">
          <mxGeometry width="50" height="50" relative="1" as="geometry">
            <mxPoint x="590" y="330" as="sourcePoint" />
            <mxPoint x="640" y="280" as="targetPoint" />
          </mxGeometry>
        </mxCell>
        <mxCell id="ffHOuooeFG3IOqxRoeIw-775" value="" style="shape=flexArrow;endArrow=classic;html=1;rounded=0;exitX=1;exitY=0.5;exitDx=0;exitDy=0;entryX=0.019;entryY=0.606;entryDx=0;entryDy=0;entryPerimeter=0;" edge="1" parent="1" source="ffHOuooeFG3IOqxRoeIw-715" target="ffHOuooeFG3IOqxRoeIw-728">
          <mxGeometry width="50" height="50" relative="1" as="geometry">
            <mxPoint x="610" y="330" as="sourcePoint" />
            <mxPoint x="660" y="280" as="targetPoint" />
          </mxGeometry>
        </mxCell>
      </root>
    </mxGraphModel>
  </diagram>
</mxfile>
